<svg width="80" height="80" viewBox="0 0 180 180" fill="none" xmlns="http://www.w3.org/2000/svg">
<path d="M84.5 0.5C67.8864 0.5 51.6459 5.42651 37.8321 14.6566C24.0184 23.8866 13.2519 37.0056 6.89416 52.3546C0.536396 67.7036 -1.12708 84.5932 2.11407 100.888C5.35523 117.182 13.3555 132.149 25.1031 143.897C36.8507 155.645 51.8181 163.645 68.1125 166.886C84.4069 170.127 101.296 168.464 116.645 162.106C131.994 155.748 145.113 144.982 154.343 131.168C163.574 117.354 168.5 101.114 168.5 84.5C168.5 62.2218 159.65 40.8561 143.897 25.103C128.144 9.34998 106.778 0.5 84.5 0.5ZM131.75 64.97C131.75 66.839 131.196 68.6661 130.157 70.2201C129.119 71.7742 127.643 72.9854 125.916 73.7007C124.19 74.4159 122.29 74.6031 120.456 74.2384C118.623 73.8738 116.939 72.9738 115.618 71.6522C114.296 70.3306 113.396 68.6467 113.032 66.8136C112.667 64.9805 112.854 63.0804 113.569 61.3536C114.285 59.6269 115.496 58.151 117.05 57.1126C118.604 56.0742 120.431 55.52 122.3 55.52C124.806 55.52 127.21 56.5156 128.982 58.2878C130.754 60.0601 131.75 62.4637 131.75 64.97ZM50.1125 74.42C48.2435 74.42 46.4164 73.8658 44.8624 72.8274C43.3084 71.789 42.0971 70.3131 41.3819 68.5864C40.6666 66.8596 40.4795 64.9595 40.8441 63.1264C41.2087 61.2933 42.1088 59.6094 43.4304 58.2878C44.752 56.9662 46.4358 56.0662 48.2689 55.7016C50.1021 55.3369 52.0021 55.5241 53.7289 56.2393C55.4557 56.9546 56.9316 58.1658 57.9699 59.7199C59.0083 61.2739 59.5625 63.101 59.5625 64.97C59.5629 66.2289 59.3116 67.4751 58.8237 68.6355C58.3357 69.796 57.6207 70.8472 56.7209 71.7275C55.821 72.6078 54.7543 73.2995 53.5834 73.7618C52.4125 74.2242 51.1611 74.448 49.9025 74.42H50.1125ZM123.613 113.953C124.448 115.066 124.807 116.467 124.61 117.845C124.413 119.223 123.676 120.467 122.563 121.303C121.449 122.138 120.048 122.497 118.67 122.3C117.292 122.103 116.048 121.366 115.213 120.252C111.748 115.616 107.238 111.863 102.048 109.3C96.8591 106.737 91.1378 105.435 85.3503 105.502C79.5628 105.568 73.8729 107.001 68.7439 109.683C63.6149 112.365 59.1919 116.22 55.835 120.935C55.0275 122.07 53.8022 122.837 52.4287 123.069C51.0552 123.3 49.6461 122.976 48.5113 122.169C47.3765 121.361 46.609 120.136 46.3776 118.762C46.1462 117.389 46.47 115.98 47.2775 114.845C51.5925 108.783 57.2779 103.827 63.871 100.378C70.464 96.9295 77.7783 95.0868 85.2182 94.9998C92.6582 94.9128 100.014 96.5841 106.685 99.8775C113.357 103.171 119.157 107.994 123.613 113.953Z" fill="white"/>
</svg>
