<svg width="80" height="80" viewBox="0 0 180 180" fill="none" xmlns="http://www.w3.org/2000/svg">
<path d="M80 0C35.8213 0 0 35.8166 0 80C0 124.183 35.8213 160 80 160C124.188 160 160 124.183 160 80C160 35.8166 124.188 0 80 0ZM50.4759 53.3582C56.8058 53.3582 61.9352 58.4923 61.9352 64.8175C61.9352 71.1428 56.8058 76.2768 50.4759 76.2768C44.1507 76.2768 39.0166 71.1428 39.0166 64.8175C39.0166 58.4923 44.1507 53.3582 50.4759 53.3582ZM113.486 125.632H46.5238C42.6558 125.632 39.5165 122.492 39.5165 118.624C39.5165 114.747 42.6558 111.617 46.5238 111.617H113.486C117.354 111.617 120.493 114.747 120.493 118.624C120.493 122.492 117.354 125.632 113.486 125.632ZM109.524 76.2768C103.199 76.2768 98.0648 71.1428 98.0648 64.8175C98.0648 58.4923 103.203 53.3582 109.524 53.3582C115.849 53.3582 120.983 58.4923 120.983 64.8175C120.983 71.1428 115.859 76.2768 109.524 76.2768Z" fill="white"/>
</svg>
