<svg width="80" height="80" viewBox="0 0 180 180" fill="none" xmlns="http://www.w3.org/2000/svg">
<path d="M137.569 24.2508C122.458 9.257 102.368 1 81 1C59.6315 1 39.5414 9.257 24.4314 24.2508C9.3214 39.2446 1 59.1801 1 80.3842C1 101.588 9.3214 121.525 24.4314 136.518C39.5414 151.512 59.6311 159.769 81 159.769C102.369 159.769 122.459 151.512 137.569 136.518C152.679 121.525 161 101.59 161 80.3842C161 59.1805 152.679 39.2446 137.569 24.2508ZM36.7505 66.4488C36.7505 55.7922 45.4875 47.1224 56.2267 47.1224C66.9659 47.1224 75.7029 55.7922 75.7029 66.4488C75.7029 69.6504 73.0868 72.2467 69.86 72.2467C66.6328 72.2467 64.0172 69.6504 64.0172 66.4488C64.0172 62.1865 60.5223 58.7182 56.2267 58.7182C51.931 58.7182 48.4362 62.1865 48.4362 66.4488C48.4362 69.6504 45.8202 72.2467 42.5933 72.2467C39.3665 72.2467 36.7505 69.6504 36.7505 66.4488ZM122.951 88.8063C122.872 89.1178 120.946 96.521 114.828 103.893C109.156 110.729 98.684 118.875 80.9996 118.875C63.3156 118.875 52.8433 110.729 47.1714 103.893C41.0532 96.521 39.1278 89.117 39.0483 88.8063C38.7558 87.6509 39.016 86.4264 39.7541 85.4868C40.4926 84.5471 41.6258 83.9975 42.8263 83.9975H119.173C120.373 83.9975 121.507 84.5471 122.245 85.4868C122.984 86.4264 123.243 87.6509 122.951 88.8063ZM119.407 72.2467C116.18 72.2467 113.564 69.6504 113.564 66.4488C113.564 62.1865 110.069 58.7182 105.773 58.7182C101.478 58.7182 97.9832 62.1865 97.9832 66.4488C97.9832 69.6504 95.3664 72.2467 92.1404 72.2467C88.9132 72.2467 86.2975 69.6504 86.2975 66.4488C86.2975 55.7922 95.0345 47.1224 105.773 47.1224C116.512 47.1224 125.25 55.7922 125.25 66.4488C125.25 69.6504 122.633 72.2467 119.407 72.2467Z" fill="#FFA74F"/>
</svg>
