<svg width="80" height="80" viewBox="0 0 180 180" fill="none" xmlns="http://www.w3.org/2000/svg">
<path d="M84 0.875C38.2812 0.875 0.875 38.2812 0.875 84C0.875 129.719 38.2812 167.125 84 167.125C129.719 167.125 167.125 129.719 167.125 84C167.125 38.2812 129.719 0.875 84 0.875ZM36.5 78.0625C36.5 74.5 38.875 72.125 42.4375 72.125H57.875L50.1562 64.4062C47.7812 62.0312 47.7812 58.4688 50.1562 56.0938C52.5312 53.7188 56.0938 53.7188 58.4688 56.0938L76.2812 73.9062C78.0625 75.6875 78.6562 78.0625 77.4688 80.4375C76.875 82.8125 74.5 84 72.125 84H42.4375C38.875 84 36.5 81.625 36.5 78.0625ZM119.625 111.906C118.438 113.094 116.656 113.688 114.875 113.688C113.688 113.688 111.906 113.094 110.719 112.5C103.594 105.375 94.0938 101.812 84 101.812C73.9062 101.812 64.4062 105.375 56.6875 112.5C54.3125 114.875 50.75 114.281 48.375 111.906C46 109.531 46.5938 105.969 48.9688 103.594C58.4688 94.6875 71.5313 90.5312 84 90.5312C96.4687 90.5312 109.531 95.2812 119.031 103.594C122 105.375 122 108.938 119.625 111.906ZM125.562 84H95.875C93.5 84 91.125 82.8125 90.5312 80.4375C89.3438 78.0625 89.9375 75.6875 91.7187 73.9062L109.531 56.0938C111.906 53.7188 115.469 53.7188 117.844 56.0938C120.219 58.4688 120.219 62.0312 117.844 64.4062L110.125 72.125H125.562C129.125 72.125 131.5 74.5 131.5 78.0625C131.5 81.625 129.125 84 125.562 84Z" fill="#CE3375"/>
</svg>
