<svg width="80" height="80" viewBox="0 0 180 180" fill="none" xmlns="http://www.w3.org/2000/svg">
<path d="M137.569 24.431C122.458 9.32101 102.368 1 81 1C59.6315 1 39.5414 9.32101 24.4314 24.431C9.3214 39.541 1 59.6311 1 80.9996C1 102.368 9.3214 122.459 24.4314 137.569C39.5414 152.679 59.6311 161 81 161C102.369 161 122.459 152.679 137.569 137.569C152.679 122.459 161 102.369 161 80.9996C161 59.6315 152.679 39.541 137.569 24.431ZM36.7505 66.9561C36.7505 56.2169 45.4875 47.4799 56.2267 47.4799C66.9659 47.4799 75.7029 56.2169 75.7029 66.9561C75.7029 70.1825 73.0868 72.799 69.86 72.799C66.6332 72.799 64.0172 70.1825 64.0172 66.9561C64.0172 62.6608 60.5223 59.1656 56.2267 59.1656C51.931 59.1656 48.4362 62.6608 48.4362 66.9561C48.4362 70.1825 45.8202 72.799 42.5933 72.799C39.3665 72.799 36.7505 70.1825 36.7505 66.9561ZM117.265 92.8147C110.507 105.407 97.4624 113.702 83.2218 114.463C82.5004 114.501 81.7791 114.52 81.0608 114.52C67.4781 114.52 54.5389 107.705 46.8945 96.3901C46.115 95.2359 45.389 94.0331 44.7346 92.815C43.2084 89.9719 44.2761 86.4296 47.1196 84.9034C49.962 83.3773 53.5047 84.4442 55.0312 87.2885C55.499 88.1598 56.0198 89.0211 56.5788 89.8488C62.3426 98.3809 72.3187 103.342 82.5986 102.792C92.7901 102.248 102.128 96.3071 106.968 87.2873C108.494 84.4442 112.036 83.3761 114.88 84.9015C117.723 86.4288 118.791 89.9715 117.265 92.8147ZM119.407 72.799C116.18 72.799 113.564 70.1825 113.564 66.9561C113.564 62.6608 110.069 59.1656 105.773 59.1656C101.478 59.1656 97.9832 62.6608 97.9832 66.9561C97.9832 70.1825 95.3668 72.799 92.1404 72.799C88.9132 72.799 86.2975 70.1825 86.2975 66.9561C86.2975 56.2169 95.0345 47.4799 105.773 47.4799C116.512 47.4799 125.25 56.2169 125.25 66.9561C125.25 70.1825 122.633 72.799 119.407 72.799Z" fill="#FFBE98"/>
</svg>
