<svg width="90" height="90" viewBox="0 0 164 144" fill="none" xmlns="http://www.w3.org/2000/svg">
<path d="M157 56.5H125.75V6.5C125.75 2.75 123.25 0.25 119.5 0.25H7C3.25 0.25 0.75 2.75 0.75 6.5V119C0.75 132.75 12 144 25.75 144H132C132.625 144 133.25 144 133.875 143.375C135.125 143.375 136.375 144 138.25 144C152 144 163.25 132.75 163.25 119V62.75C163.25 59 160.75 56.5 157 56.5ZM44.5 69H32C28.25 69 25.75 66.5 25.75 62.75C25.75 59 28.25 56.5 32 56.5H44.5C48.25 56.5 50.75 59 50.75 62.75C50.75 66.5 48.25 69 44.5 69ZM69.5 44H32C28.25 44 25.75 41.5 25.75 37.75C25.75 34 28.25 31.5 32 31.5H69.5C73.25 31.5 75.75 34 75.75 37.75C75.75 41.5 73.25 44 69.5 44ZM150.75 119C150.75 125.875 145.125 131.5 138.25 131.5C137 131.5 135.75 131.5 134.5 130.875C130.75 129.625 128.25 126.5 127 123.375V122.75C125.75 121.5 125.75 120.25 125.75 119V69H150.75V119Z" fill="white"/>
</svg>
