<svg width="90" height="90" viewBox="0 0 172 200" fill="none" xmlns="http://www.w3.org/2000/svg">
<path d="M98.8128 0.903366C55.6527 -1.74 19.312 25.2839 20.1339 69.3141L20.1011 73.2992L1.34992 106.256C0.341329 108.031 0.251486 110.181 1.11047 112.039C1.96242 113.898 3.6632 115.232 5.67375 115.623L17.262 118.806L20.8995 153.757C20.9995 157.122 22.5038 160.289 25.0534 162.509C27.6062 164.715 30.9777 165.765 34.339 165.39L43.5945 166.126C45.3984 165.924 47.2093 166.497 48.5601 167.703C49.9148 168.912 50.687 170.637 50.687 172.446V199.785H128.976C128.976 199.785 128.976 186.591 128.976 181.278C128.976 175.965 130.816 163.818 134.317 158.26C147.008 138.063 167.669 127.317 171.154 85.8905C174.639 44.4702 149.8 4.03039 98.8128 0.903366ZM152.779 77.9332C148.939 77.9332 144.928 77.9332 144.928 77.9332C143.018 77.9301 141.467 76.3866 141.463 74.485V69.6718C141.463 67.9095 140.022 66.4752 138.251 66.4752C136.478 66.4752 135.037 67.9095 135.037 69.6718V74.485C135.04 79.9242 139.466 84.3268 144.928 84.3299C144.938 84.3299 148.203 84.3299 151.664 84.3299C147.973 99.4911 137.806 105.202 127.612 99.4713C120.968 95.7315 121.534 90.1497 118.436 85.5188V68.605C118.436 66.8426 116.994 65.4084 115.221 65.4084C113.447 65.4084 112.009 66.843 112.009 68.605V80.5035C107.396 78.5362 100.051 77.2738 87.7862 77.2738C84.4648 77.2738 81.3995 77.2474 78.5405 77.1941V64.345C78.5405 62.5761 77.0995 61.1449 75.3257 61.1449C73.5515 61.1449 72.114 62.5761 72.114 64.345V77.0188C46.1241 76.0118 42.3034 71.8545 40.2601 61.4004C40.1769 60.7775 40.1171 60.1617 40.0636 59.5486H53.7058C60.1757 59.5486 65.421 54.3279 65.421 47.8919V42.8567C65.421 41.0912 63.9804 39.6601 62.2058 39.6601C60.432 39.6601 58.9945 41.0912 58.9945 42.8567V47.8919C58.9878 50.7969 56.6249 53.1491 53.7058 53.1553H40.0468C40.8323 44.2579 45.0558 36.9837 51.6191 30.3319C56.6347 25.2403 62.8218 21.2953 69.8409 18.6154C69.8409 22.7498 69.8409 26.7842 69.8409 28.4043C69.8605 31.1472 70.8261 33.943 72.6831 36.3208C73.6148 37.5004 74.7999 38.5672 76.2476 39.3421C77.6851 40.1235 79.3991 40.594 81.2265 40.5909C86.3882 40.5909 91.5538 40.5909 91.5538 40.5909C93.3277 40.5909 94.7655 39.1566 94.7655 37.3942C94.7655 35.6288 93.3277 34.1945 91.5538 34.1945C91.5538 34.1945 86.3882 34.1945 81.2265 34.1945C80.4741 34.191 79.8718 34.0188 79.2995 33.714C78.4507 33.2634 77.6585 32.4321 77.0995 31.4116C76.5437 30.4046 76.2573 29.225 76.2671 28.4039C76.2671 26.5191 76.2671 21.3649 76.2671 16.5879C81.5956 15.2166 87.2835 14.4911 93.2312 14.4911C94.7421 14.4911 96.273 14.5374 97.8042 14.6334C111.283 15.4584 122.952 19.6651 132.091 26.8927V55.013C132.091 56.782 133.532 58.2158 135.306 58.2158C137.08 58.2158 138.518 56.7816 138.518 55.013V32.9259C138.688 33.1145 138.864 33.2968 139.034 33.4889C148.239 44.0923 153.201 58.7236 153.072 74.2428C153.009 75.5254 152.906 76.7439 152.779 77.9332Z" fill="white"/>
<path d="M112.009 34.2281C110.235 34.2281 108.794 35.6623 108.794 37.4278V47.763C108.791 49.9954 106.974 51.8172 104.723 51.8207H93.2645C91.4906 51.8207 90.0527 53.2484 90.0527 55.0142C90.0527 56.7832 91.4906 58.2171 93.2645 58.2171H104.723C110.525 58.2074 115.221 53.5365 115.221 47.763V37.4278C115.221 35.6623 113.783 34.2281 112.009 34.2281Z" fill="white"/>
</svg>
