<svg fill="#FFFFFF" width="30px" height="30px" viewBox="0 0 32 32" version="1.1" xmlns="http://www.w3.org/2000/svg">
<title>alt-bell</title>
<path d="M4 20q0 1.632 1.6 3.008t4.384 2.208 6.016 0.8 6.016-0.8 4.384-2.208 1.6-3.008q0-1.792-1.984-3.296v-2.688q0-3.040-1.696-5.536t-4.384-3.68q0.064-0.416 0.064-0.8 0-1.632-1.184-2.816t-2.816-1.184-2.816 1.184-1.184 2.816q0 0.384 0.064 0.8-2.688 1.184-4.384 3.68t-1.664 5.536v2.688q-2.016 1.504-2.016 3.296zM12 28q0 1.664 1.184 2.848t2.816 1.152 2.816-1.152 1.184-2.848q0-0.096-0.032-0.32-2.208 0.32-3.968 0.32t-3.968-0.32q0 0.064 0 0.16t-0.032 0.16z"></path>
</svg>
